<svg version="1.1" id="Layer_1" xmlns="http://www.w3.org/2000/svg" xmlns:xlink="http://www.w3.org/1999/xlink" x="0px" y="0px"
	 width="100%" viewBox="0 0 500 500" enable-background="new 0 0 500 500" xml:space="preserve">
<path fill="#000000" opacity="1.000000" stroke="none" 
	d="
M1.000000,194.000000 
	C1.000000,129.349350 1.000000,65.198708 1.000000,1.024032 
	C167.609024,1.024032 334.218048,1.024032 500.913544,1.024032 
	C500.913544,167.567368 500.913544,334.134796 500.913544,500.851135 
	C334.333435,500.851135 167.666733,500.851135 1.000000,500.851135 
	C1.000000,398.781830 1.000000,296.640900 1.000000,194.000000 
M17.044025,324.500000 
	C17.044699,348.160370 16.967377,371.821198 17.098368,395.480865 
	C17.133110,401.756256 16.852791,408.269287 18.363918,414.257629 
	C23.423290,434.307037 32.204163,452.298676 48.661354,465.890564 
	C65.309563,479.640167 84.111664,487.747345 105.729515,487.790771 
	C202.204681,487.984680 298.680786,487.997253 395.155426,487.709717 
	C403.902863,487.683655 412.869537,485.853973 421.338837,483.461517 
	C439.284882,478.391998 454.174896,468.126495 465.408417,453.237823 
	C478.783783,435.510406 485.010864,415.332306 484.972076,393.018860 
	C484.829346,310.873199 484.922546,228.727158 484.907928,146.581253 
	C484.905273,131.752548 485.012360,116.919617 484.698090,102.096489 
	C484.448059,90.303581 481.102509,79.086151 476.316162,68.428268 
	C470.904449,56.377892 463.125031,46.032009 453.394501,36.872215 
	C443.475006,27.534513 431.518036,21.969978 419.216431,17.638023 
	C410.917786,14.715689 401.450409,14.218976 392.499786,14.183930 
	C325.851013,13.922968 259.200714,14.040225 192.550888,14.056996 
	C162.059036,14.064670 131.565201,13.926072 101.076462,14.250010 
	C91.068382,14.356344 81.394310,17.146358 72.273552,21.313839 
	C58.196041,27.746168 46.243294,36.993279 36.647884,49.201347 
	C25.129536,63.855942 17.584282,80.548271 17.436455,99.060936 
	C16.839085,173.870224 17.099833,248.686386 17.044025,324.500000 
z"/>
<path fill="#FDFEFE" opacity="1.000000" stroke="none" 
	d="
M17.043915,324.000000 
	C17.099833,248.686386 16.839085,173.870224 17.436455,99.060936 
	C17.584282,80.548271 25.129536,63.855942 36.647884,49.201347 
	C46.243294,36.993279 58.196041,27.746168 72.273552,21.313839 
	C81.394310,17.146358 91.068382,14.356344 101.076462,14.250010 
	C131.565201,13.926072 162.059036,14.064670 192.550888,14.056996 
	C259.200714,14.040225 325.851013,13.922968 392.499786,14.183930 
	C401.450409,14.218976 410.917786,14.715689 419.216431,17.638023 
	C431.518036,21.969978 443.475006,27.534513 453.394501,36.872215 
	C463.125031,46.032009 470.904449,56.377892 476.316162,68.428268 
	C481.102509,79.086151 484.448059,90.303581 484.698090,102.096489 
	C485.012360,116.919617 484.905273,131.752548 484.907928,146.581253 
	C484.922546,228.727158 484.829346,310.873199 484.972076,393.018860 
	C485.010864,415.332306 478.783783,435.510406 465.408417,453.237823 
	C454.174896,468.126495 439.284882,478.391998 421.338837,483.461517 
	C412.869537,485.853973 403.902863,487.683655 395.155426,487.709717 
	C298.680786,487.997253 202.204681,487.984680 105.729515,487.790771 
	C84.111664,487.747345 65.309563,479.640167 48.661354,465.890564 
	C32.204163,452.298676 23.423290,434.307037 18.363918,414.257629 
	C16.852791,408.269287 17.133110,401.756256 17.098368,395.480865 
	C16.967377,371.821198 17.044699,348.160370 17.043915,324.000000 
M398.126221,194.166672 
	C392.828125,167.513565 378.782074,146.388901 357.368378,129.999176 
	C352.872528,126.558113 347.863464,127.050613 344.877075,130.720001 
	C341.780426,134.524872 342.522217,138.917160 347.042694,142.928619 
	C350.150238,145.686172 353.471802,148.211411 356.483429,151.066513 
	C368.206451,162.180161 375.710205,175.910004 380.895630,191.843567 
	C385.055603,208.851837 385.735657,225.863846 381.793579,242.210648 
	C371.302094,243.219345 361.610291,243.543304 352.149536,245.192688 
	C334.742249,248.227478 318.520508,254.586868 304.101349,265.044128 
	C298.165710,269.348846 296.814575,273.721985 299.884705,277.991791 
	C302.902496,282.188812 307.466248,282.325653 313.568573,278.395050 
	C314.268219,277.944397 314.898010,277.353424 315.644592,277.012268 
	C325.888062,272.331177 335.788696,266.488129 346.479156,263.286865 
	C365.818695,257.495636 385.549194,258.481293 405.587646,264.376892 
	C412.185547,267.456879 418.849670,270.404724 425.355835,273.667664 
	C429.103943,275.547394 432.445801,275.611847 435.294250,272.443542 
	C438.251007,269.154694 438.147369,265.416382 435.636597,261.942078 
	C434.500671,260.370300 432.951843,258.733398 431.221313,258.015198 
	C421.615173,254.028473 411.895630,250.315048 401.505432,246.099579 
	C398.500366,246.028015 398.200043,244.486069 398.673553,241.819504 
	C401.450592,226.180740 401.962616,210.541534 398.126221,194.166672 
M284.251953,337.226471 
	C301.164124,346.262695 318.021362,346.040527 334.888306,337.041138 
	C338.703339,335.005676 342.645905,333.198151 346.587646,331.413513 
	C358.751862,325.906219 371.018524,325.386353 383.336853,330.910889 
	C389.713837,333.770844 395.989014,336.868713 402.433350,339.564636 
	C410.633209,342.994965 419.124359,345.438019 428.153198,344.657837 
	C433.848145,344.165710 437.614868,340.520203 437.525177,336.081543 
	C437.435944,331.662567 434.125214,328.374634 428.325531,328.022552 
	C417.764954,327.381409 408.125336,324.000031 399.002777,318.963959 
	C376.885773,306.754211 354.607269,306.597382 332.865509,319.191711 
	C316.796875,328.499786 301.472076,328.746338 285.779968,319.042053 
	C283.529053,317.650085 281.091187,316.381012 278.567871,315.643219 
	C271.574890,313.598511 264.589569,311.177887 257.422791,310.150208 
	C242.354782,307.989532 228.787674,313.341492 216.053680,320.625061 
	C201.797928,328.779083 187.896622,328.467957 173.839111,320.527618 
	C172.391571,319.709991 170.879288,319.007263 169.400253,318.244995 
	C147.635788,307.028320 126.207367,307.291168 104.395920,318.787903 
	C96.462059,322.969788 87.292015,324.822388 78.652412,327.634613 
	C77.094734,328.141632 75.342766,328.018921 73.733673,328.407288 
	C69.754547,329.367676 67.152092,331.735626 67.154968,336.041809 
	C67.157753,340.214508 69.436195,343.156677 73.412300,343.997894 
	C76.595741,344.671387 80.016754,344.722687 83.278198,344.435486 
	C94.307098,343.464294 104.108978,338.750519 113.628090,333.572784 
	C129.031662,325.194397 144.369324,324.951111 159.955917,332.906342 
	C164.398270,335.173645 168.984924,337.162506 173.534546,339.214478 
	C188.243134,345.848236 202.880722,345.776123 217.419159,338.655823 
	C221.904144,336.459290 226.378922,334.241882 230.860596,332.038544 
	C245.334473,324.922638 259.744507,325.292938 274.104706,332.395020 
	C277.236206,333.943726 280.392181,335.442993 284.251953,337.226471 
M208.927032,305.562195 
	C214.762665,303.141907 220.859726,301.204285 226.385406,298.211700 
	C243.591263,288.893402 260.828278,288.285858 277.827301,297.983368 
	C298.983521,310.052399 319.637695,310.060425 340.813293,297.956543 
	C357.398285,288.476562 374.321014,289.024292 391.449158,297.608154 
	C399.116486,301.450684 407.417114,304.398315 415.755188,306.396912 
	C420.839111,307.615479 426.655975,306.858276 431.930359,305.860718 
	C436.220856,305.049225 437.709930,301.048035 437.094421,296.811249 
	C436.495087,292.685852 433.598572,291.053864 429.647461,290.886627 
	C426.661652,290.760284 423.449829,291.190125 420.738159,290.236328 
	C411.217712,286.887604 401.774841,283.273071 392.477753,279.344574 
	C376.053009,272.404327 359.564270,271.708893 342.941833,278.252686 
	C337.535858,280.380859 332.238403,282.858337 327.093231,285.560547 
	C315.270081,291.769989 303.563354,291.777954 291.730804,285.686554 
	C287.293915,283.402466 282.817932,281.163269 278.229034,279.210968 
	C261.692444,272.175629 245.032013,271.461884 228.365799,278.779388 
	C223.346176,280.983307 218.534912,283.683136 213.452103,285.715271 
	C209.013351,287.489899 204.414062,289.121796 199.732315,289.976868 
	C189.401794,291.863647 180.513611,287.247589 171.786682,282.676300 
	C149.677231,271.095062 127.610008,270.429382 105.493988,282.559570 
	C95.852692,287.847626 85.731094,291.246033 74.550484,290.899017 
	C70.826012,290.783417 68.033493,292.539734 67.228516,296.362946 
	C66.426613,300.171570 67.817291,303.311096 71.186089,305.298035 
	C72.580368,306.120361 74.272339,306.856903 75.841904,306.884125 
	C80.471535,306.964386 85.375679,307.587128 89.683876,306.327179 
	C97.935623,303.913879 106.102730,300.873047 113.851578,297.149200 
	C129.576889,289.592102 145.105042,288.697327 160.926178,296.487518 
	C165.254852,298.618896 169.637253,300.653412 174.068344,302.562103 
	C185.063431,307.298340 196.354187,309.256714 208.927032,305.562195 
M146.422058,189.157669 
	C166.006927,195.539001 185.106628,188.901398 196.627029,171.710266 
	C207.410904,155.618179 205.920685,134.038574 192.977859,118.867065 
	C180.711075,104.488022 159.078476,99.829948 141.504257,108.507614 
	C125.254059,116.531532 116.713898,130.173950 117.165649,148.263168 
	C117.651947,167.735489 127.509125,181.451950 146.422058,189.157669 
M377.482117,130.836166 
	C390.558319,135.528671 398.668732,144.545975 401.687958,158.201965 
	C402.845551,163.437912 406.002655,165.757156 410.335083,165.244659 
	C414.535797,164.747742 417.212738,161.499542 416.959229,156.250153 
	C416.794098,152.831238 416.178253,149.291428 414.998871,146.087555 
	C407.967377,126.986053 393.549561,116.755600 374.095673,113.023689 
	C368.754150,111.999001 364.617767,114.885269 363.829803,119.337311 
	C363.010864,123.964287 365.662384,127.608673 370.955688,129.079514 
	C372.873444,129.612381 374.810883,130.074448 377.482117,130.836166 
M312.874725,156.509689 
	C316.273468,148.168839 322.709320,142.465851 329.468933,136.921951 
	C333.731232,133.426208 334.329803,128.989853 331.759338,125.454964 
	C329.023071,121.692078 324.396576,120.970398 319.771027,124.200951 
	C302.146606,136.510132 292.212067,152.809891 294.077637,175.020554 
	C294.586792,181.081940 298.109100,185.089874 302.662506,184.807175 
	C307.552704,184.503586 309.920837,180.688843 310.257446,174.353088 
	C310.562317,168.614365 311.745148,162.922287 312.874725,156.509689 
M360.049622,106.570717 
	C368.987122,95.714989 378.867981,93.627312 391.255798,100.136253 
	C394.891693,102.046654 398.072845,101.589378 400.713501,98.682587 
	C403.471313,95.646957 404.108093,91.924240 401.328369,88.732712 
	C399.332001,86.440582 396.657410,84.418571 393.882202,83.177788 
	C376.922729,75.595245 355.566437,82.370163 345.882874,98.285774 
	C344.797699,100.069321 343.484833,102.490311 343.897430,104.231956 
	C344.558136,107.020821 345.986877,110.519203 348.196564,111.779869 
	C350.114990,112.874367 353.678650,111.617691 356.293701,110.740089 
	C357.656494,110.282730 358.541290,108.400955 360.049622,106.570717 
M356.870850,193.990952 
	C353.535248,189.300262 349.599609,184.915924 347.010498,179.844162 
	C343.488068,172.944138 344.270966,165.301224 345.223358,157.791824 
	C345.990112,151.746155 343.591858,147.848587 338.953400,147.025406 
	C334.071869,146.159088 329.752380,149.316101 329.256287,155.321976 
	C328.658386,162.559875 328.234039,169.995361 329.225708,177.138290 
	C330.706573,187.805313 335.692932,197.031464 344.539154,203.696579 
	C347.703705,206.080902 351.258575,206.853699 354.712708,204.341080 
	C358.082306,201.889938 358.978668,198.564545 356.870850,193.990952 
M332.228424,111.685738 
	C334.628510,105.983780 333.621796,102.277695 328.270538,99.810539 
	C324.701080,98.164864 320.801544,96.868813 316.922546,96.327194 
	C303.509705,94.454384 291.962524,98.658508 282.594147,108.353500 
	C278.870300,112.207161 279.045441,117.229385 282.297272,120.445793 
	C285.656158,123.768089 289.363495,123.774963 293.728882,119.729210 
	C302.193329,111.884560 311.697998,110.259506 322.300446,114.275391 
	C325.976288,115.667686 329.107788,115.334808 332.228424,111.685738 
M222.026474,213.740540 
	C226.625351,209.084305 226.856659,205.942856 222.561401,201.354248 
	C218.352020,196.857407 214.001694,192.485092 209.573029,188.203110 
	C205.450134,184.216766 201.405487,183.962769 198.154846,187.204575 
	C194.978622,190.372116 195.143936,194.513519 198.966309,198.701050 
	C203.118393,203.249817 207.477585,207.611115 211.790909,212.010574 
	C214.495331,214.768997 217.664062,215.680023 222.026474,213.740540 
M97.131500,202.707611 
	C94.528694,206.712646 95.125618,210.444260 98.725639,213.305237 
	C102.319031,216.160919 105.930573,215.137619 108.979942,212.067749 
	C113.544052,207.472931 118.144112,202.903336 122.495758,198.111298 
	C125.939850,194.318680 125.837448,189.915115 122.673454,187.052948 
	C119.465240,184.150787 115.229645,184.364334 111.554665,187.945190 
	C106.797958,192.580093 102.228813,197.407501 97.131500,202.707611 
M211.221359,107.788109 
	C215.169891,103.743401 219.235931,99.805229 223.030121,95.620590 
	C226.120544,92.212135 226.045547,87.677536 223.237411,84.818466 
	C220.441086,81.971436 215.696335,81.825981 212.451019,84.909103 
	C207.632645,89.486679 202.997513,94.264099 198.418320,99.083702 
	C195.857712,101.778778 195.050873,105.342842 197.517517,108.124313 
	C199.245560,110.072876 202.342392,111.530151 204.943695,111.734734 
	C206.762680,111.877792 208.777298,109.533707 211.221359,107.788109 
M100.354393,98.114098 
	C104.474380,102.229767 108.492241,106.454933 112.748283,110.424736 
	C115.873024,113.339317 119.334091,112.473694 122.232155,110.037636 
	C124.849678,107.837379 126.387779,104.425735 123.963135,101.644943 
	C118.526962,95.410240 112.767281,89.390465 106.594086,83.895729 
	C103.786392,81.396622 99.842995,82.207657 97.171654,85.208580 
	C94.483994,88.227837 94.500046,91.530754 97.133484,94.687706 
	C97.984360,95.707733 98.930756,96.648087 100.354393,98.114098 
M167.217010,232.256332 
	C167.464584,224.315018 168.130661,216.355240 167.781052,208.440292 
	C167.609329,204.552567 164.456467,201.965408 160.165283,201.935333 
	C156.398941,201.908920 153.036774,205.229584 152.894867,209.413177 
	C152.686127,215.566986 152.871918,221.733185 152.805527,227.893204 
	C152.763855,231.759964 154.087326,234.731537 157.857925,236.209457 
	C161.766022,237.741257 164.591965,236.082611 167.217010,232.256332 
M155.428268,91.041649 
	C161.172836,94.692581 167.411362,92.320580 167.937210,85.821175 
	C168.457138,79.395004 168.261063,72.880402 167.934311,66.427116 
	C167.721817,62.230064 164.075729,59.155460 160.372192,59.235668 
	C156.336517,59.323067 153.033310,62.555386 152.897903,67.038071 
	C152.717636,73.005592 152.698257,78.989456 152.951599,84.951775 
	C153.030304,86.804153 154.219727,88.609344 155.428268,91.041649 
M248.236313,148.684555 
	C247.531021,144.397003 244.807709,142.325195 240.660080,142.223511 
	C235.014526,142.085129 229.356461,142.022461 223.716141,142.243362 
	C219.268951,142.417542 216.212891,145.643692 216.327469,149.455444 
	C216.445175,153.370834 219.937317,156.906677 224.141983,157.017288 
	C229.455063,157.157043 234.779327,157.180374 240.090240,157.001068 
	C244.812790,156.841599 247.992615,154.680786 248.236313,148.684555 
M82.870514,142.174774 
	C76.609512,142.533325 73.505272,144.961792 73.572906,149.448334 
	C73.643196,154.111023 77.329712,157.026321 83.267151,157.062073 
	C87.408699,157.086990 91.551193,157.097748 95.692177,157.038666 
	C101.112595,156.961334 104.498634,153.813660 104.390999,149.046936 
	C104.296799,144.875244 101.129776,142.318970 95.713669,142.199387 
	C91.739471,142.111649 87.761894,142.176971 82.870514,142.174774 
M399.234009,428.513123 
	C405.275604,426.521362 407.882660,421.187714 404.086365,417.506348 
	C402.235168,415.711212 398.321442,414.683807 395.857758,415.317230 
	C393.949066,415.808014 391.790314,419.336243 391.609375,421.659607 
	C391.283508,425.843323 394.265656,428.182068 399.234009,428.513123 
M351.337860,398.884064 
	C351.923523,397.902100 352.702515,396.985504 353.060516,395.926544 
	C354.432587,391.868164 352.357788,387.898468 348.500671,386.968018 
	C344.128510,385.913300 340.184814,388.319061 339.496002,392.461182 
	C338.837006,396.423889 341.549438,400.311646 345.583893,400.598358 
	C347.266693,400.717926 349.023346,399.797424 351.337860,398.884064 
M393.686951,398.854065 
	C394.548401,399.331451 395.524323,400.345428 396.250885,400.190460 
	C398.948883,399.614868 402.424164,399.394714 403.954895,397.617584 
	C405.316345,396.037018 405.560303,391.771759 404.347595,390.145691 
	C402.931946,388.247559 399.335571,386.957703 396.800934,387.127655 
	C391.771362,387.464844 390.290131,392.717834 393.686951,398.854065 
M194.079422,423.652710 
	C195.065170,419.549500 193.925873,416.302063 189.836411,414.802917 
	C186.102417,413.434113 182.917725,414.591064 180.976715,418.167297 
	C179.092224,421.639343 180.130981,424.663361 183.127350,426.913605 
	C186.428101,429.392487 190.640747,428.285889 194.079422,423.652710 
M232.482925,392.750519 
	C232.316086,397.526215 234.641464,400.477753 239.353165,400.669312 
	C242.971603,400.816406 245.653793,398.799957 246.334412,394.943329 
	C247.001572,391.163147 245.449860,388.418365 241.903946,387.104279 
	C237.853104,385.603119 234.746780,387.369629 232.482925,392.750519 
M75.723473,426.540741 
	C78.813194,429.171143 82.469200,429.516754 85.152763,426.795898 
	C86.785675,425.140320 87.722496,421.704102 87.307129,419.363159 
	C86.571220,415.215576 81.637207,413.377472 77.754768,415.043945 
	C73.584648,416.833893 72.643364,420.853699 75.723473,426.540741 
M80.534309,386.757721 
	C76.965317,386.915710 74.557030,388.595551 73.827667,392.178589 
	C73.003189,396.228882 75.548157,399.897888 79.535393,400.628632 
	C83.127647,401.286957 86.862701,398.767242 87.778214,395.067963 
	C88.698265,391.350311 86.157570,388.078186 80.534309,386.757721 
M432.678772,423.812622 
	C433.761658,419.726593 432.641571,416.471283 428.621582,414.880463 
	C424.933960,413.421143 421.751160,414.511627 419.679749,418.017975 
	C417.852631,421.110809 418.956146,425.298950 421.966003,427.175629 
	C425.310455,429.260925 429.234894,428.241058 432.678772,423.812622 
M323.246063,388.010712 
	C317.276642,385.634155 312.711853,387.389313 312.016693,392.414490 
	C311.533752,395.905609 312.725708,399.180756 316.176422,399.871185 
	C318.676636,400.371429 322.267853,399.748413 324.126404,398.164307 
	C327.331085,395.432831 326.742615,391.678131 323.246063,388.010712 
M164.217758,388.038361 
	C158.298386,385.630829 153.703857,387.355347 152.949326,392.386078 
	C152.426804,395.869843 153.653137,399.153046 157.091110,399.857544 
	C159.584045,400.368469 163.158737,399.741333 165.041336,398.171173 
	C168.298309,395.454773 167.714966,391.715363 164.217758,388.038361 
z"/>
<path fill="#123D5D" opacity="1.000000" stroke="none" 
	d="
M283.894409,337.095764 
	C280.392181,335.442993 277.236206,333.943726 274.104706,332.395020 
	C259.744507,325.292938 245.334473,324.922638 230.860596,332.038544 
	C226.378922,334.241882 221.904144,336.459290 217.419159,338.655823 
	C202.880722,345.776123 188.243134,345.848236 173.534546,339.214478 
	C168.984924,337.162506 164.398270,335.173645 159.955917,332.906342 
	C144.369324,324.951111 129.031662,325.194397 113.628090,333.572784 
	C104.108978,338.750519 94.307098,343.464294 83.278198,344.435486 
	C80.016754,344.722687 76.595741,344.671387 73.412300,343.997894 
	C69.436195,343.156677 67.157753,340.214508 67.154968,336.041809 
	C67.152092,331.735626 69.754547,329.367676 73.733673,328.407288 
	C75.342766,328.018921 77.094734,328.141632 78.652412,327.634613 
	C87.292015,324.822388 96.462059,322.969788 104.395920,318.787903 
	C126.207367,307.291168 147.635788,307.028320 169.400253,318.244995 
	C170.879288,319.007263 172.391571,319.709991 173.839111,320.527618 
	C187.896622,328.467957 201.797928,328.779083 216.053680,320.625061 
	C228.787674,313.341492 242.354782,307.989532 257.422791,310.150208 
	C264.589569,311.177887 271.574890,313.598511 278.567871,315.643219 
	C281.091187,316.381012 283.529053,317.650085 285.779968,319.042053 
	C301.472076,328.746338 316.796875,328.499786 332.865509,319.191711 
	C354.607269,306.597382 376.885773,306.754211 399.002777,318.963959 
	C408.125336,324.000031 417.764954,327.381409 428.325531,328.022552 
	C434.125214,328.374634 437.435944,331.662567 437.525177,336.081543 
	C437.614868,340.520203 433.848145,344.165710 428.153198,344.657837 
	C419.124359,345.438019 410.633209,342.994965 402.433350,339.564636 
	C395.989014,336.868713 389.713837,333.770844 383.336853,330.910889 
	C371.018524,325.386353 358.751862,325.906219 346.587646,331.413513 
	C342.645905,333.198151 338.703339,335.005676 334.888306,337.041138 
	C318.021362,346.040527 301.164124,346.262695 283.894409,337.095764 
z"/>
<path fill="#113D5D" opacity="1.000000" stroke="none" 
	d="
M208.535156,305.682983 
	C196.354187,309.256714 185.063431,307.298340 174.068344,302.562103 
	C169.637253,300.653412 165.254852,298.618896 160.926178,296.487518 
	C145.105042,288.697327 129.576889,289.592102 113.851578,297.149200 
	C106.102730,300.873047 97.935623,303.913879 89.683876,306.327179 
	C85.375679,307.587128 80.471535,306.964386 75.841904,306.884125 
	C74.272339,306.856903 72.580368,306.120361 71.186089,305.298035 
	C67.817291,303.311096 66.426613,300.171570 67.228516,296.362946 
	C68.033493,292.539734 70.826012,290.783417 74.550484,290.899017 
	C85.731094,291.246033 95.852692,287.847626 105.493988,282.559570 
	C127.610008,270.429382 149.677231,271.095062 171.786682,282.676300 
	C180.513611,287.247589 189.401794,291.863647 199.732315,289.976868 
	C204.414062,289.121796 209.013351,287.489899 213.452103,285.715271 
	C218.534912,283.683136 223.346176,280.983307 228.365799,278.779388 
	C245.032013,271.461884 261.692444,272.175629 278.229034,279.210968 
	C282.817932,281.163269 287.293915,283.402466 291.730804,285.686554 
	C303.563354,291.777954 315.270081,291.769989 327.093231,285.560547 
	C332.238403,282.858337 337.535858,280.380859 342.941833,278.252686 
	C359.564270,271.708893 376.053009,272.404327 392.477753,279.344574 
	C401.774841,283.273071 411.217712,286.887604 420.738159,290.236328 
	C423.449829,291.190125 426.661652,290.760284 429.647461,290.886627 
	C433.598572,291.053864 436.495087,292.685852 437.094421,296.811249 
	C437.709930,301.048035 436.220856,305.049225 431.930359,305.860718 
	C426.655975,306.858276 420.839111,307.615479 415.755188,306.396912 
	C407.417114,304.398315 399.116486,301.450684 391.449158,297.608154 
	C374.321014,289.024292 357.398285,288.476562 340.813293,297.956543 
	C319.637695,310.060425 298.983521,310.052399 277.827301,297.983368 
	C260.828278,288.285858 243.591263,288.893402 226.385406,298.211700 
	C220.859726,301.204285 214.762665,303.141907 208.535156,305.682983 
z"/>
<path fill="#133E5E" opacity="1.000000" stroke="none" 
	d="
M146.040405,189.060455 
	C127.509125,181.451950 117.651947,167.735489 117.165649,148.263168 
	C116.713898,130.173950 125.254059,116.531532 141.504257,108.507614 
	C159.078476,99.829948 180.711075,104.488022 192.977859,118.867065 
	C205.920685,134.038574 207.410904,155.618179 196.627029,171.710266 
	C185.106628,188.901398 166.006927,195.539001 146.040405,189.060455 
M150.829025,172.922211 
	C162.201263,176.865097 173.181595,173.885193 180.925262,164.754517 
	C187.823685,156.620514 188.981186,144.445389 183.769150,134.841110 
	C178.596893,125.310143 167.790649,119.749977 157.068878,121.102913 
	C145.447708,122.569328 136.230026,131.341034 134.137054,142.925247 
	C131.923050,155.179550 138.062103,166.600098 150.829025,172.922211 
z"/>
<path fill="#133D5C" opacity="1.000000" stroke="none" 
	d="
M405.000122,263.957245 
	C385.549194,258.481293 365.818695,257.495636 346.479156,263.286865 
	C335.788696,266.488129 325.888062,272.331177 315.644592,277.012268 
	C314.898010,277.353424 314.268219,277.944397 313.568573,278.395050 
	C307.466248,282.325653 302.902496,282.188812 299.884705,277.991791 
	C296.814575,273.721985 298.165710,269.348846 304.101349,265.044128 
	C318.520508,254.586868 334.742249,248.227478 352.149536,245.192688 
	C361.610291,243.543304 371.302094,243.219345 381.793579,242.210648 
	C385.735657,225.863846 385.055603,208.851837 381.289673,191.430466 
	C384.107483,192.507431 387.014648,193.554596 388.862915,195.571930 
	C394.082214,201.268707 394.404541,201.397934 398.041779,194.978897 
	C401.962616,210.541534 401.450592,226.180740 398.673553,241.819504 
	C398.200043,244.486069 398.500366,246.028015 401.659943,246.639175 
	C399.747406,249.020538 397.680359,250.862289 395.357635,252.931870 
	C402.836365,257.507904 402.863617,257.540985 405.000122,263.957245 
M391.286987,257.514221 
	C394.058563,253.224380 394.058563,253.224380 391.468475,251.402603 
	C391.023529,253.194260 390.574371,254.901932 390.200348,256.625885 
	C390.148682,256.863861 390.469055,257.182526 391.286987,257.514221 
z"/>
<path fill="#113E5F" opacity="1.000000" stroke="none" 
	d="
M398.083984,194.572784 
	C394.404541,201.397934 394.082214,201.268707 388.862915,195.571930 
	C387.014648,193.554596 384.107483,192.507431 381.308472,191.018372 
	C375.710205,175.910004 368.206451,162.180161 356.483429,151.066513 
	C353.471802,148.211411 350.150238,145.686172 347.042694,142.928619 
	C342.522217,138.917160 341.780426,134.524872 344.877075,130.720001 
	C347.863464,127.050613 352.872528,126.558113 357.368378,129.999176 
	C378.782074,146.388901 392.828125,167.513565 398.083984,194.572784 
z"/>
<path fill="#143E5D" opacity="1.000000" stroke="none" 
	d="
M377.110718,130.702484 
	C374.810883,130.074448 372.873444,129.612381 370.955688,129.079514 
	C365.662384,127.608673 363.010864,123.964287 363.829803,119.337311 
	C364.617767,114.885269 368.754150,111.999001 374.095673,113.023689 
	C393.549561,116.755600 407.967377,126.986053 414.998871,146.087555 
	C416.178253,149.291428 416.794098,152.831238 416.959229,156.250153 
	C417.212738,161.499542 414.535797,164.747742 410.335083,165.244659 
	C406.002655,165.757156 402.845551,163.437912 401.687958,158.201965 
	C398.668732,144.545975 390.558319,135.528671 377.110718,130.702484 
z"/>
<path fill="#133E5C" opacity="1.000000" stroke="none" 
	d="
M312.707825,156.859665 
	C311.745148,162.922287 310.562317,168.614365 310.257446,174.353088 
	C309.920837,180.688843 307.552704,184.503586 302.662506,184.807175 
	C298.109100,185.089874 294.586792,181.081940 294.077637,175.020554 
	C292.212067,152.809891 302.146606,136.510132 319.771027,124.200951 
	C324.396576,120.970398 329.023071,121.692078 331.759338,125.454964 
	C334.329803,128.989853 333.731232,133.426208 329.468933,136.921951 
	C322.709320,142.465851 316.273468,148.168839 312.707825,156.859665 
z"/>
<path fill="#133E5E" opacity="1.000000" stroke="none" 
	d="
M359.845795,106.866653 
	C358.541290,108.400955 357.656494,110.282730 356.293701,110.740089 
	C353.678650,111.617691 350.114990,112.874367 348.196564,111.779869 
	C345.986877,110.519203 344.558136,107.020821 343.897430,104.231956 
	C343.484833,102.490311 344.797699,100.069321 345.882874,98.285774 
	C355.566437,82.370163 376.922729,75.595245 393.882202,83.177788 
	C396.657410,84.418571 399.332001,86.440582 401.328369,88.732712 
	C404.108093,91.924240 403.471313,95.646957 400.713501,98.682587 
	C398.072845,101.589378 394.891693,102.046654 391.255798,100.136253 
	C378.867981,93.627312 368.987122,95.714989 359.845795,106.866653 
z"/>
<path fill="#153F5E" opacity="1.000000" stroke="none" 
	d="
M357.055695,194.327759 
	C358.978668,198.564545 358.082306,201.889938 354.712708,204.341080 
	C351.258575,206.853699 347.703705,206.080902 344.539154,203.696579 
	C335.692932,197.031464 330.706573,187.805313 329.225708,177.138290 
	C328.234039,169.995361 328.658386,162.559875 329.256287,155.321976 
	C329.752380,149.316101 334.071869,146.159088 338.953400,147.025406 
	C343.591858,147.848587 345.990112,151.746155 345.223358,157.791824 
	C344.270966,165.301224 343.488068,172.944138 347.010498,179.844162 
	C349.599609,184.915924 353.535248,189.300262 357.055695,194.327759 
z"/>
<path fill="#143F5D" opacity="1.000000" stroke="none" 
	d="
M331.999634,111.994019 
	C329.107788,115.334808 325.976288,115.667686 322.300446,114.275391 
	C311.697998,110.259506 302.193329,111.884560 293.728882,119.729210 
	C289.363495,123.774963 285.656158,123.768089 282.297272,120.445793 
	C279.045441,117.229385 278.870300,112.207161 282.594147,108.353500 
	C291.962524,98.658508 303.509705,94.454384 316.922546,96.327194 
	C320.801544,96.868813 324.701080,98.164864 328.270538,99.810539 
	C333.621796,102.277695 334.628510,105.983780 331.999634,111.994019 
z"/>
<path fill="#123F5F" opacity="1.000000" stroke="none" 
	d="
M405.293884,264.167053 
	C402.863617,257.540985 402.836365,257.507904 395.357635,252.931870 
	C397.680359,250.862289 399.747406,249.020538 402.014679,246.843414 
	C411.895630,250.315048 421.615173,254.028473 431.221313,258.015198 
	C432.951843,258.733398 434.500671,260.370300 435.636597,261.942078 
	C438.147369,265.416382 438.251007,269.154694 435.294250,272.443542 
	C432.445801,275.611847 429.103943,275.547394 425.355835,273.667664 
	C418.849670,270.404724 412.185547,267.456879 405.293884,264.167053 
z"/>
<path fill="#153E5A" opacity="1.000000" stroke="none" 
	d="
M221.685944,213.914337 
	C217.664062,215.680023 214.495331,214.768997 211.790909,212.010574 
	C207.477585,207.611115 203.118393,203.249817 198.966309,198.701050 
	C195.143936,194.513519 194.978622,190.372116 198.154846,187.204575 
	C201.405487,183.962769 205.450134,184.216766 209.573029,188.203110 
	C214.001694,192.485092 218.352020,196.857407 222.561401,201.354248 
	C226.856659,205.942856 226.625351,209.084305 221.685944,213.914337 
z"/>
<path fill="#153F5F" opacity="1.000000" stroke="none" 
	d="
M97.355209,202.429810 
	C102.228813,197.407501 106.797958,192.580093 111.554665,187.945190 
	C115.229645,184.364334 119.465240,184.150787 122.673454,187.052948 
	C125.837448,189.915115 125.939850,194.318680 122.495758,198.111298 
	C118.144112,202.903336 113.544052,207.472931 108.979942,212.067749 
	C105.930573,215.137619 102.319031,216.160919 98.725639,213.305237 
	C95.125618,210.444260 94.528694,206.712646 97.355209,202.429810 
z"/>
<path fill="#143D5C" opacity="1.000000" stroke="none" 
	d="
M210.962952,108.044281 
	C208.777298,109.533707 206.762680,111.877792 204.943695,111.734734 
	C202.342392,111.530151 199.245560,110.072876 197.517517,108.124313 
	C195.050873,105.342842 195.857712,101.778778 198.418320,99.083702 
	C202.997513,94.264099 207.632645,89.486679 212.451019,84.909103 
	C215.696335,81.825981 220.441086,81.971436 223.237411,84.818466 
	C226.045547,87.677536 226.120544,92.212135 223.030121,95.620590 
	C219.235931,99.805229 215.169891,103.743401 210.962952,108.044281 
z"/>
<path fill="#143D5C" opacity="1.000000" stroke="none" 
	d="
M100.093925,97.869492 
	C98.930756,96.648087 97.984360,95.707733 97.133484,94.687706 
	C94.500046,91.530754 94.483994,88.227837 97.171654,85.208580 
	C99.842995,82.207657 103.786392,81.396622 106.594086,83.895729 
	C112.767281,89.390465 118.526962,95.410240 123.963135,101.644943 
	C126.387779,104.425735 124.849678,107.837379 122.232155,110.037636 
	C119.334091,112.473694 115.873024,113.339317 112.748283,110.424736 
	C108.492241,106.454933 104.474380,102.229767 100.093925,97.869492 
z"/>
<path fill="#143D5D" opacity="1.000000" stroke="none" 
	d="
M167.052460,232.629059 
	C164.591965,236.082611 161.766022,237.741257 157.857925,236.209457 
	C154.087326,234.731537 152.763855,231.759964 152.805527,227.893204 
	C152.871918,221.733185 152.686127,215.566986 152.894867,209.413177 
	C153.036774,205.229584 156.398941,201.908920 160.165283,201.935333 
	C164.456467,201.965408 167.609329,204.552567 167.781052,208.440292 
	C168.130661,216.355240 167.464584,224.315018 167.052460,232.629059 
z"/>
<path fill="#143D5F" opacity="1.000000" stroke="none" 
	d="
M155.164459,90.738892 
	C154.219727,88.609344 153.030304,86.804153 152.951599,84.951775 
	C152.698257,78.989456 152.717636,73.005592 152.897903,67.038071 
	C153.033310,62.555386 156.336517,59.323067 160.372192,59.235668 
	C164.075729,59.155460 167.721817,62.230064 167.934311,66.427116 
	C168.261063,72.880402 168.457138,79.395004 167.937210,85.821175 
	C167.411362,92.320580 161.172836,94.692581 155.164459,90.738892 
z"/>
<path fill="#153C5C" opacity="1.000000" stroke="none" 
	d="
M248.241852,149.093475 
	C247.992615,154.680786 244.812790,156.841599 240.090240,157.001068 
	C234.779327,157.180374 229.455063,157.157043 224.141983,157.017288 
	C219.937317,156.906677 216.445175,153.370834 216.327469,149.455444 
	C216.212891,145.643692 219.268951,142.417542 223.716141,142.243362 
	C229.356461,142.022461 235.014526,142.085129 240.660080,142.223511 
	C244.807709,142.325195 247.531021,144.397003 248.241852,149.093475 
z"/>
<path fill="#153E5C" opacity="1.000000" stroke="none" 
	d="
M83.328171,142.174438 
	C87.761894,142.176971 91.739471,142.111649 95.713669,142.199387 
	C101.129776,142.318970 104.296799,144.875244 104.390999,149.046936 
	C104.498634,153.813660 101.112595,156.961334 95.692177,157.038666 
	C91.551193,157.097748 87.408699,157.086990 83.267151,157.062073 
	C77.329712,157.026321 73.643196,154.111023 73.572906,149.448334 
	C73.505272,144.961792 76.609512,142.533325 83.328171,142.174438 
z"/>
<path fill="#194363" opacity="1.000000" stroke="none" 
	d="
M398.865967,428.555603 
	C394.265656,428.182068 391.283508,425.843323 391.609375,421.659607 
	C391.790314,419.336243 393.949066,415.808014 395.857758,415.317230 
	C398.321442,414.683807 402.235168,415.711212 404.086365,417.506348 
	C407.882660,421.187714 405.275604,426.521362 398.865967,428.555603 
z"/>
<path fill="#194363" opacity="1.000000" stroke="none" 
	d="
M351.042145,399.116943 
	C349.023346,399.797424 347.266693,400.717926 345.583893,400.598358 
	C341.549438,400.311646 338.837006,396.423889 339.496002,392.461182 
	C340.184814,388.319061 344.128510,385.913300 348.500671,386.968018 
	C352.357788,387.898468 354.432587,391.868164 353.060516,395.926544 
	C352.702515,396.985504 351.923523,397.902100 351.042145,399.116943 
z"/>
<path fill="#194363" opacity="1.000000" stroke="none" 
	d="
M393.426300,398.586517 
	C390.290131,392.717834 391.771362,387.464844 396.800934,387.127655 
	C399.335571,386.957703 402.931946,388.247559 404.347595,390.145691 
	C405.560303,391.771759 405.316345,396.037018 403.954895,397.617584 
	C402.424164,399.394714 398.948883,399.614868 396.250885,400.190460 
	C395.524323,400.345428 394.548401,399.331451 393.426300,398.586517 
z"/>
<path fill="#1B4464" opacity="1.000000" stroke="none" 
	d="
M193.949020,424.003571 
	C190.640747,428.285889 186.428101,429.392487 183.127350,426.913605 
	C180.130981,424.663361 179.092224,421.639343 180.976715,418.167297 
	C182.917725,414.591064 186.102417,413.434113 189.836411,414.802917 
	C193.925873,416.302063 195.065170,419.549500 193.949020,424.003571 
z"/>
<path fill="#194362" opacity="1.000000" stroke="none" 
	d="
M232.570023,392.384399 
	C234.746780,387.369629 237.853104,385.603119 241.903946,387.104279 
	C245.449860,388.418365 247.001572,391.163147 246.334412,394.943329 
	C245.653793,398.799957 242.971603,400.816406 239.353165,400.669312 
	C234.641464,400.477753 232.316086,397.526215 232.570023,392.384399 
z"/>
<path fill="#194362" opacity="1.000000" stroke="none" 
	d="
M75.462357,426.244904 
	C72.643364,420.853699 73.584648,416.833893 77.754768,415.043945 
	C81.637207,413.377472 86.571220,415.215576 87.307129,419.363159 
	C87.722496,421.704102 86.785675,425.140320 85.152763,426.795898 
	C82.469200,429.516754 78.813194,429.171143 75.462357,426.244904 
z"/>
<path fill="#184262" opacity="1.000000" stroke="none" 
	d="
M80.943542,386.775238 
	C86.157570,388.078186 88.698265,391.350311 87.778214,395.067963 
	C86.862701,398.767242 83.127647,401.286957 79.535393,400.628632 
	C75.548157,399.897888 73.003189,396.228882 73.827667,392.178589 
	C74.557030,388.595551 76.965317,386.915710 80.943542,386.775238 
z"/>
<path fill="#184262" opacity="1.000000" stroke="none" 
	d="
M432.470032,424.156433 
	C429.234894,428.241058 425.310455,429.260925 421.966003,427.175629 
	C418.956146,425.298950 417.852631,421.110809 419.679749,418.017975 
	C421.751160,414.511627 424.933960,413.421143 428.621582,414.880463 
	C432.641571,416.471283 433.761658,419.726593 432.470032,424.156433 
z"/>
<path fill="#194363" opacity="1.000000" stroke="none" 
	d="
M323.564941,388.259949 
	C326.742615,391.678131 327.331085,395.432831 324.126404,398.164307 
	C322.267853,399.748413 318.676636,400.371429 316.176422,399.871185 
	C312.725708,399.180756 311.533752,395.905609 312.016693,392.414490 
	C312.711853,387.389313 317.276642,385.634155 323.564941,388.259949 
z"/>
<path fill="#184262" opacity="1.000000" stroke="none" 
	d="
M164.532227,388.290375 
	C167.714966,391.715363 168.298309,395.454773 165.041336,398.171173 
	C163.158737,399.741333 159.584045,400.368469 157.091110,399.857544 
	C153.653137,399.153046 152.426804,395.869843 152.949326,392.386078 
	C153.703857,387.355347 158.298386,385.630829 164.532227,388.290375 
z"/>
<path fill="#FBFCFD" opacity="1.000000" stroke="none" 
	d="
M150.468460,172.779083 
	C138.062103,166.600098 131.923050,155.179550 134.137054,142.925247 
	C136.230026,131.341034 145.447708,122.569328 157.068878,121.102913 
	C167.790649,119.749977 178.596893,125.310143 183.769150,134.841110 
	C188.981186,144.445389 187.823685,156.620514 180.925262,164.754517 
	C173.181595,173.885193 162.201263,176.865097 150.468460,172.779083 
z"/>
<path fill="#123F5F" opacity="1.000000" stroke="none" 
	d="
M390.952087,257.489014 
	C390.469055,257.182526 390.148682,256.863861 390.200348,256.625885 
	C390.574371,254.901932 391.023529,253.194260 391.468475,251.402603 
	C394.058563,253.224380 394.058563,253.224380 390.952087,257.489014 
z"/>
</svg>